<svg id="Layer_1" enable-background="new 0 0 510 510" height="512" viewBox="0 0 510 510" width="512" xmlns="http://www.w3.org/2000/svg"><g><g><path d="m254.256 0c-98.131 0-158.581 55.352-158.747 55.445 0 0-2.513 3.137-2.983 5.222-3.818 16.948-7.385 39.663-7.385 56.238 0 140.833 118.763 254.972 259.596 254.972 54.231 0 114.568-25.992 154.949-57.243.903-.699 3.769-5.396 3.769-5.396.178-1.087 5.8-23.477 5.8-54.239.001-140.832-114.167-254.999-254.999-254.999z" fill="#afe6ff"/></g><path d="m182.615 356.802v-262.358l-123.274-91.683v354.041z" fill="#0360e8"/><path d="m94.938 69.499-94.791-68.584v268.198h94.791z" fill="#0360e8"/><path d="m218.212 423.54v-262.359l-123.274-91.682v354.041z" fill="#2477f9"/><path d="m144.869 422.479c-26.868 0-48.649-21.781-48.649-48.649v-303.378l-9.862-7.335c-48.368 42.359-80.595 102.697-86.211 170.592v42.575c3.356 40.61 16.228 78.519 36.379 111.493l5.138 2.174.256 6.274c6.102 9.156 12.78 17.895 19.983 26.165l38.476 35.946c32.849 24.895 71.917 42.014 114.464 48.616l3.368-84.474h-73.342z" fill="#0360e8"/><path d="m92.791 174.219h89.049v35.67h-89.049z" fill="#ffe65a"/><path d="m92.791 236.331h89.049v35.67h-89.049z" fill="#ffe65a"/><path d="m92.791 298.444h89.049v35.67h-89.049z" fill="#ffe65a"/><path d="m92.791 360.556h89.049v35.67h-89.049z" fill="#ffe65a"/><path d="m100.378 458.339h81.462v-35.67h-119.701c11.487 13.151 24.304 25.108 38.239 35.67z" fill="#ffe65a"/><path d="m36.519 174.219h59.701v35.67h-59.701z" fill="#ffd23c"/><path d="m36.519 236.331h59.701v35.67h-59.701z" fill="#ffd23c"/><path d="m36.519 298.444h59.701v35.67h-59.701z" fill="#ffd23c"/><path d="m36.519 387.781c1.744 2.854 3.548 5.666 5.4 8.445h54.301v-35.67h-59.701z" fill="#ffd23c"/><path d="m96.22 455.127v-32.458h-34.081c10.337 11.833 21.746 22.704 34.081 32.458z" fill="#ffd23c"/><path d="m405.075 429.154v-386.345h-107.877l-64.797 386.345z" fill="#ffa50a"/><path d="m297.198 423.535v-380.726h-82.356v464.157c12.847 1.993 26.008 3.034 39.414 3.034 40.558 0 79.07-9.526 113.305-26.539l37.514-59.927h-107.877z" fill="#fa870a"/><path d="m301.337 113.859-43.233 3.946 6.556-40.393h36.677z" fill="#ffe65a"/><path d="m264.66 113.859v-36.447h-19.312v50.742h55.989v-14.295z" fill="#ffd23c"/><g fill="#ffe65a"><path d="m319.152 77.412h55.989v50.741h-55.989z"/><path d="m245.348 141.312h55.989v50.741h-55.989z"/><path d="m319.152 141.312h55.989v50.741h-55.989z"/><path d="m245.348 205.213h55.989v50.741h-55.989z"/><path d="m319.152 205.213h55.989v50.741h-55.989z"/><path d="m245.348 269.113h55.989v50.741h-55.989z"/><path d="m319.152 269.113h55.989v50.741h-55.989z"/><path d="m245.348 333.013h55.989v50.741h-55.989z"/><path d="m319.152 333.013h55.989v50.741h-55.989z"/><path d="m245.348 396.913h55.989v50.741h-55.989z"/><path d="m319.152 396.913h55.989v50.741h-55.989z"/></g><path d="m244.164 128.154h130.977v13.159h-130.977z" fill="#fa870a"/><path d="m244.164 192.054h130.977v13.159h-130.977z" fill="#fa870a"/><path d="m244.164 255.954h130.977v13.159h-130.977z" fill="#fa870a"/><path d="m244.164 319.854h130.977v13.159h-130.977z" fill="#fa870a"/><path d="m244.164 383.754h130.977v13.159h-130.977z" fill="#fa870a"/><path d="m338.464 113.859v-36.447h-19.312v50.742h55.989v-14.295z" fill="#ffd23c"/><path d="m264.66 177.759v-36.447h-19.312v50.742h55.989v-14.295z" fill="#ffd23c"/><path d="m338.178 177.759v-36.447h-19.312v50.742h55.989v-14.295z" fill="#ffd23c"/><path d="m264.66 241.659v-36.446h-19.312v50.741h55.989v-14.295z" fill="#ffd23c"/><path d="m337.892 241.659v-36.446h-19.312v50.741h55.989v-14.295z" fill="#ffd23c"/><path d="m264.66 305.559v-36.446h-19.312v50.741h55.989v-14.295z" fill="#ffd23c"/><path d="m338.178 305.559v-36.446h-19.312v50.741h55.989v-14.295z" fill="#ffd23c"/><path d="m264.66 369.459v-36.446h-19.312v50.741h55.989v-14.295z" fill="#ffd23c"/><path d="m338.178 369.459v-36.446h-19.312v50.741h55.989v-14.295z" fill="#ffd23c"/><path d="m264.66 433.359v-36.446h-19.312v50.741h55.989v-14.295z" fill="#ffd23c"/><path d="m338.178 433.359v-36.446h-19.312v50.741h55.989v-14.295z" fill="#ffd23c"/><path d="m464.023 42.809h11.685v106.262h-11.685z" fill="#ec6996"/><path d="m464.023 118.626h11.685v30.445h-11.685z" fill="#ff4181"/><path d="m386.773 141.312h103.866v29.126h-103.866z" fill="#ff4181"/><g><path d="m491.95 162.502h-79.949v292.798c5.162-4.067 10.166-8.331 14.998-12.78l23.382-24.575c4.775-5.735 9.305-11.686 13.572-17.838l23.446-41.689c6.928-15.601 12.344-32.053 16.055-49.181.178-1.087 5.8-23.477 5.8-54.239.002-32.626-6.136-63.818-17.304-92.496z" fill="#ff6196"/><path d="m418.368 450.153c-2.75 0-4.979-2.229-4.979-4.979v-282.672h-45.83v320.956c18.267-9.075 35.318-20.275 50.809-33.305z" fill="#ff4181"/></g><g><path d="m412.001 162.502v73.055l97.852 27.509v-100.564z" fill="#ff6196"/><path d="m367.559 162.502h45.83v93.452h-45.83z" fill="#ff4181"/></g><g fill="#b80b5a"><path d="m413.389 454.228v-254.05h-23.37v270.672c8.106-5.105 15.906-10.658 23.37-16.622z"/><path d="m427.021 442.544c8.319-7.661 16.122-15.882 23.37-24.591v-217.775h-23.37z"/><path d="m464.023 400.018c9.019-13.02 16.86-26.936 23.37-41.603v-158.237h-23.37z"/></g></g></svg>