<svg xmlns="http://www.w3.org/2000/svg" viewBox="0 0 29 38" width="29" height="38">
	<style>
		tspan { white-space:pre }
		.shp0 { fill: #fed136 } 
	</style>
	<g id="Services">
		<g id="3 - Web Security">
			<path id="Icon-Locked" fill-rule="evenodd" class="shp0" d="M14.68 0.63C19.84 0.63 24.02 4.29 24.02 8.8L24.02 18.13L25.18 18.13C27.12 18.13 28.68 19.7 28.68 21.63L28.68 34.46C28.68 36.4 27.12 37.97 25.18 37.97L4.19 37.97C2.25 37.97 0.69 36.4 0.69 34.46L0.69 21.63C0.69 19.7 2.25 18.13 4.19 18.13L5.35 18.13L5.35 8.8C5.35 4.29 9.53 0.63 14.68 0.63ZM10.02 8.8L10.02 16.97C10.02 17.37 10.11 17.77 10.28 18.13L19.09 18.13C19.26 17.77 19.35 17.37 19.35 16.97L19.35 8.8C19.35 6.87 17.26 5.3 14.68 5.3C12.11 5.3 10.02 6.87 10.02 8.8ZM12.35 32.13C12.35 33.42 13.4 34.46 14.68 34.46C15.97 34.46 17.02 33.42 17.02 32.13L17.02 30.34C18.41 29.53 19.35 28.03 19.35 26.3C19.35 23.72 17.26 21.63 14.68 21.63C12.11 21.63 10.02 23.72 10.02 26.3C10.02 28.03 10.96 29.53 12.35 30.34L12.35 32.13Z" />
		</g>
	</g>
</svg>