<svg xmlns="http://www.w3.org/2000/svg" viewBox="0 0 20 20" width="20" height="20">
	<style>
		tspan { white-space:pre }
		.shp0 { opacity: 0.702;fill: #b7b9cd } 
	</style>
	<g id="best game">
		<g id="Group 1 copy 4">
			<path id="basket" class="shp0" d="M19.95 7.77L19.97 7.77L17.47 19.02L17.45 19.01C17.32 19.57 16.85 20 16.25 20L3.75 20C3.15 20 2.68 19.57 2.55 19.01L2.53 19.02L0.03 7.77L0.05 7.77C0.03 7.68 0 7.59 0 7.5C0 6.81 0.56 6.25 1.25 6.25L3.75 6.25C3.75 2.8 6.55 0 10 0C13.45 0 16.25 2.8 16.25 6.25L18.75 6.25C19.44 6.25 20 6.81 20 7.5C20 7.59 19.97 7.68 19.95 7.77ZM10 2.5C7.93 2.5 6.25 4.18 6.25 6.25L13.75 6.25C13.75 4.18 12.07 2.5 10 2.5ZM15 11.25C14.31 11.25 13.75 10.69 13.75 10L13.75 8.75L6.25 8.75L6.25 10C6.25 10.69 5.69 11.25 5 11.25C4.31 11.25 3.75 10.69 3.75 10L3.75 8.75L2.81 8.75L4.75 17.5L15.25 17.5L17.19 8.75L16.25 8.75L16.25 10C16.25 10.69 15.69 11.25 15 11.25Z" />
		</g>
	</g>
</svg>