<svg xmlns="http://www.w3.org/2000/svg" viewBox="0 0 19 21" width="19" height="21">
	<style>
		tspan { white-space:pre }
		.shp0 { opacity: 0.702;fill: #b7b9cd } 
	</style>
	<g id="best game">
		<g id="Group 1 copy 3">
			<path id="card" class="shp0" d="M18.99 11.31C18.99 13.99 16.87 16.16 14.25 16.16C12.69 16.16 11.33 15.38 10.47 14.2L10.45 14.22L9.5 12.92L8.55 14.22L8.54 14.21C7.67 15.38 6.31 16.16 4.75 16.16C2.13 16.16 0.01 13.99 0.01 11.31C0.01 10.22 0.37 9.22 0.97 8.41L0.96 8.4C0.96 8.4 7.92 -0.01 9.5 -0.01C11.08 -0.01 18.04 8.4 18.04 8.4L18.03 8.41C18.63 9.22 18.99 10.22 18.99 11.31ZM7.92 17.77L7.92 16.16C7.92 15.26 8.63 14.54 9.5 14.54C10.37 14.54 11.08 15.26 11.08 16.16L11.08 17.77C11.96 17.77 12.66 18.5 12.66 19.39C12.66 20.28 11.96 21.01 11.08 21.01L7.92 21.01C7.04 21.01 6.34 20.28 6.34 19.39C6.34 18.5 7.04 17.77 7.92 17.77Z" />
		</g>
	</g>
</svg>