<svg xmlns="http://www.w3.org/2000/svg" viewBox="0 0 40 39" width="40" height="39">
	<style>
		tspan { white-space:pre }
		.shp0 { fill: #fed136 } 
	</style>
	<g id="Services">
		<g id="1 - E-Commerce">
			<path id="Icon-Basket" fill-rule="evenodd" class="shp0" d="M0.75 12.89C0.75 10.99 2.3 9.45 4.2 9.45L8.08 9.45C8.14 9.23 8.23 9.01 8.35 8.8L12.48 1.65C13.24 0.33 14.93 -0.12 16.24 0.64C17.56 1.4 18.01 3.09 17.25 4.4L14.34 9.45L25.72 9.45L22.81 4.4C22.05 3.09 22.5 1.4 23.81 0.64C25.13 -0.12 26.81 0.33 27.58 1.65L31.71 8.8C31.83 9.01 31.91 9.23 31.98 9.45L35.86 9.45C37.76 9.45 39.3 10.99 39.3 12.89C39.3 14.79 37.76 16.33 35.86 16.33L4.2 16.33C2.3 16.33 0.75 14.79 0.75 12.89ZM35.28 38.36L4.78 38.36L3.59 17.71L36.47 17.71L35.28 38.36ZM18.65 24.59L18.65 32.85C18.65 33.61 19.27 34.23 20.03 34.23C20.79 34.23 21.4 33.61 21.4 32.85L21.4 24.59C21.4 23.83 20.79 23.21 20.03 23.21C19.27 23.21 18.65 23.83 18.65 24.59ZM26.91 24.59L26.91 32.85C26.91 33.61 27.53 34.23 28.29 34.23C29.05 34.23 29.66 33.61 29.66 32.85L29.66 24.59C29.66 23.83 29.05 23.21 28.29 23.21C27.53 23.21 26.91 23.83 26.91 24.59ZM10.39 24.59L10.39 32.85C10.39 33.61 11.01 34.23 11.77 34.23C12.53 34.23 13.14 33.61 13.14 32.85L13.14 24.59C13.14 23.83 12.53 23.21 11.77 23.21C11.01 23.21 10.39 23.83 10.39 24.59Z" />
		</g>
	</g>
</svg>