<svg xmlns="http://www.w3.org/2000/svg" viewBox="0 0 41 34" width="41" height="34">
	<style>
		tspan { white-space:pre }
		.shp0 { fill: #fed136 } 
	</style>
	<g id="Services">
		<g id="2 - Responsive Web">
			<path id="Icon-Laptop" fill-rule="evenodd" class="shp0" d="M7.36 -0.1L34.26 -0.1C36.49 -0.1 38.3 1.71 38.3 3.94L38.3 21.43C38.3 21.9 38.22 22.35 38.07 22.77L38.3 22.77L38.3 25.46L34.26 25.46L34.26 3.94L7.36 3.94L7.36 25.46L3.32 25.46L3.32 22.77L3.55 22.77C3.4 22.35 3.32 21.9 3.32 21.43L3.32 3.94C3.32 1.71 5.13 -0.1 7.36 -0.1ZM3.32 28.15L38.3 28.15C39.79 28.15 40.99 29.36 40.99 30.84C40.99 32.33 38.44 33.53 36.95 33.53L4.67 33.53C3.18 33.53 0.63 32.33 0.63 30.84C0.63 29.36 1.83 28.15 3.32 28.15ZM15.43 31.52C15.43 31.89 16.03 32.19 16.77 32.19L24.85 32.19C25.59 32.19 26.19 31.89 26.19 31.52C26.19 31.14 25.59 30.84 24.85 30.84L16.77 30.84C16.03 30.84 15.43 31.14 15.43 31.52ZM11.78 15.68L13.67 13.78C14.19 13.26 15.04 13.26 15.56 13.78L18.05 16.28L26.05 8.24C26.57 7.71 27.42 7.71 27.94 8.24L29.84 10.14C30.36 10.66 30.36 11.52 29.84 12.04L19.42 22.51C18.97 22.96 18.29 23.02 17.77 22.7C17.33 22.8 16.85 22.69 16.51 22.34L11.78 17.59C11.25 17.06 11.25 16.21 11.78 15.68Z" />
		</g>
	</g>
</svg>